<?xml version="1.0" encoding="utf-8"?>
<!-- Generator: Adobe Illustrator 19.2.1, SVG Export Plug-In . SVG Version: 6.00 Build 0)  -->
<svg version="1.1" id="Layer_1" xmlns="http://www.w3.org/2000/svg" xmlns:xlink="http://www.w3.org/1999/xlink" x="0px" y="0px"
	 viewBox="0 0 30 30" style="enable-background:new 0 0 30 30;" xml:space="preserve">
<style type="text/css">
	.st0{fill:#A7A8AB;}
</style>
<symbol  id="Location" viewBox="-8.35578 -11.77564 16.711 23.5522">
	<path class="st0" d="M8.35522,3.42166c0-1.733-0.48251-3.2955-1.44731-4.6875l0.0644,0.082l-5.4277-9.605
		c-0.3711-0.6582-0.8867-0.9868-1.5449-0.9868s-1.1738,0.3286-1.5469,0.9868l-5.4101,9.605
		c-0.9327,1.3926-1.39849,2.9277-1.39849,4.6055c0,1.5131,0.37309,2.9111,1.11819,4.1938c0.7451,1.2832,1.75981,2.2974,3.043,3.043
		c1.2822,0.7456,2.6806,1.1181,4.1943,1.1181c1.1289,0,2.209-0.2216,3.2402-0.666c1.02931-0.4438,1.918-1.039,2.6641-1.7846
		s1.3398-1.6338,1.7851-2.6641C8.13251,5.63106,8.35522,4.55056,8.35522,3.42166z M4.98211-0.06524l0.0508,0.0821
		c0.6894,1.0307,1.0352,2.1655,1.0352,3.4048c0,1.6777-0.5918,3.1084-1.7754,4.2924c-1.1856,1.1846-2.6153,1.7764-4.293,1.7764
		s-3.1094-0.5918-4.293-1.7764c-1.18449-1.184-1.7763-2.6147-1.7763-4.2924c0-1.2281,0.3447-2.3687,1.0361-3.4209l5.0332-8.8985
		L4.98211-0.06524z M-2.41829,6.21756c0.668,0.6689,1.4746,1.0034,2.418,1.0034s1.748-0.3345,2.418-1.0034
		c0.6679-0.669,1.0019-1.4747,1.0019-2.4175c0-0.9434-0.334-1.7495-1.0019-2.418c-0.67-0.6689-1.4746-1.0034-2.418-1.0034
		s-1.75,0.3345-2.418,1.0034c-0.6699,0.6685-1.0039,1.4746-1.0039,2.418C-3.42219,4.74286-3.08819,5.54856-2.41829,6.21756z"/>
</symbol>
<use xlink:href="#Location"  width="16.711" height="23.5522" x="-8.35578" y="-11.77564" transform="matrix(0.64081 0 0 -0.64081 14.32363 15.2411)" style="overflow:visible;"/>
</svg>
