<?xml version="1.0" encoding="utf-8"?>
<!-- Generator: Adobe Illustrator 19.2.1, SVG Export Plug-In . SVG Version: 6.00 Build 0)  -->
<svg version="1.1" id="Layer_1" xmlns="http://www.w3.org/2000/svg" xmlns:xlink="http://www.w3.org/1999/xlink" x="0px" y="0px"
	 viewBox="0 0 30 30" style="enable-background:new 0 0 30 30;" xml:space="preserve">
<style type="text/css">
	.st0{fill:#A7A6A6;}
</style>
<path class="st0" d="M23.80664,17.04102l-2.28027-6.22803c-0.02051-0.06689-0.25098-0.48633-0.26758-0.49707
	c-0.33984-0.44727-0.84277-0.70361-1.37988-0.70361H7.31055c-0.96484,0-1.75,0.78613-1.75,1.75293v6.45654
	c0,0.9668,0.78516,1.75293,1.75,1.75293h0.76398c0.35626,0.96631,1.27808,1.66113,2.36688,1.66113s2.01062-0.69482,2.36688-1.66113
	h3.66174c0.35626,0.96631,1.27808,1.66113,2.36688,1.66113c1.08899,0,2.01086-0.69501,2.367-1.66162l1.18964,0.00049
	c0.51953,0,1.00488-0.27881,1.29785-0.74561C24.02539,18.29785,24.06836,17.6167,23.80664,17.04102z M19.87891,11.1123
	c0.08398,0,0.14746,0.06104,0.20996,0.14062l0.68005,1.85645h-2.56415l-0.54541-1.99707H19.87891z M16.36444,11.1123
	l0.54535,1.99707H14.5448l-0.54492-1.99707H16.36444z M13.24988,13.10938h-2.36426L10.3407,11.1123h2.36432L13.24988,13.10938z
	 M7.06055,11.36523c0-0.13721,0.11426-0.25293,0.25-0.25293h1.73529l0.54486,1.99707H7.06055V11.36523z M11.37042,19.57471
	c-0.23376,0.25-0.56049,0.41113-0.92902,0.41113s-0.69525-0.16113-0.92902-0.41113
	c-0.21411-0.22894-0.35126-0.53162-0.35126-0.86914c0-0.23425,0.08032-0.44196,0.19055-0.63104
	c0.22211-0.3808,0.61792-0.64923,1.08972-0.64923c0.47174,0,0.86749,0.26837,1.0896,0.64911
	c0.11029,0.18909,0.19067,0.39685,0.19067,0.63116C11.72168,19.04309,11.58453,19.34576,11.37042,19.57471z M19.76593,19.57471
	c-0.23376,0.25-0.56049,0.41113-0.92902,0.41113s-0.69525-0.16113-0.92902-0.41113
	c-0.21411-0.22894-0.35126-0.53162-0.35126-0.86914c0-0.2345,0.08051-0.44244,0.19098-0.63165
	c0.22217-0.38049,0.61774-0.64862,1.08929-0.64862c0.4715,0,0.867,0.26807,1.08917,0.64844
	c0.11053,0.18927,0.1911,0.39728,0.1911,0.63184C20.11719,19.04309,19.98004,19.34576,19.76593,19.57471z M22.39355,18.07471
	l-1.11584-0.00043c-0.28241-1.08875-1.26459-1.89899-2.4408-1.89899c-1.17609,0-2.1582,0.81-2.44073,1.89868l-3.51398,0.00031
	c-0.28241-1.08875-1.26459-1.89899-2.4408-1.89899c-1.17633,0-2.15869,0.81042-2.44092,1.89935l-0.68994,0.00006
	c-0.13574,0-0.25-0.11572-0.25-0.25293v-3.4624h14.16632l1.18231,3.22754l0.0283,0.06787
	C22.5332,17.85352,22.43066,18.05127,22.39355,18.07471z"/>
</svg>
