<?xml version="1.0" encoding="utf-8"?>
<!-- Generator: Adobe Illustrator 19.2.0, SVG Export Plug-In . SVG Version: 6.00 Build 0)  -->
<svg version="1.1" id="Layer_1" xmlns="http://www.w3.org/2000/svg" xmlns:xlink="http://www.w3.org/1999/xlink" x="0px" y="0px"
	 viewBox="0 0 500 245" style="enable-background:new 0 0 500 245;" xml:space="preserve">
<style type="text/css">
	.st0{enable-background:new    ;}
	.st1{fill:#FFFFFF;}
</style>
<g>
	<g class="st0">
		<path class="st1" d="M155.6,172.5v-5.9c5.2-0.4,8.3-0.7,9.2-1.1c0.6-0.2,1-0.5,1.3-1c0.4-0.6,0.7-1.5,0.8-2.6
			c0.3-2.6,0.6-8.3,0.8-17.2c0.1-4.3,0.2-11.6,0.2-22c0-9.3-0.1-17.6-0.2-24.8c-0.1-7.2-0.4-11.5-0.9-12.8c-0.2-0.6-0.5-1.1-0.9-1.5
			c-0.4-0.3-1.1-0.6-2.2-0.8c-3-0.5-5.8-0.8-8.2-0.9v-5.9c9.5,0.3,16,0.4,19.6,0.4c4.7,0,9.5-0.1,14.3-0.4l6.1,13.6l4.8,10.3
			l21.9,45.2c4.7-9,8.2-16.1,10.5-21.1l9.1-19.1c5.1-10.7,8.1-17.2,9.3-19.7c1.1-2.5,2.4-5.6,3.8-9.3c6,0.3,9.9,0.5,11.6,0.5
			l20.5-0.5V82h-1c-4.6,0-7.6,0.5-8.8,1.6c-1.2,1.1-1.9,3.3-1.9,6.5c0,3.8,0,6.7-0.1,8.7l-0.3,19.4v24.2c0,5.9,0,9.3,0.1,10.3
			c0.4,5.8,0.7,9.4,1,10.7c0.1,0.6,0.4,1.2,0.8,1.6c0.4,0.4,0.9,0.7,1.6,0.9c0.7,0.2,3.6,0.5,8.7,0.8v5.9l-22-0.4l-21.5,0.4v-5.9
			c5.7-0.2,8.9-0.5,9.7-1c0.8-0.5,1.4-1.6,1.7-3.3c0.3-1.7,0.5-7.4,0.5-17.1V95.1l-16,32.3l-7.6,16.1c-2,4.2-4.9,10.4-8.5,18.4
			c-2.3,4.9-4,8.8-5.3,11.8h-4.7c-1.7-3.9-4-9.1-7.2-15.8c-5.3-11.5-9.4-20-12.1-25.7l-18.1-37V129c0,5.7,0.1,12.4,0.2,20.2
			c0.2,7.8,0.3,12.2,0.5,13.2c0.2,1,0.5,1.8,0.9,2.2c0.4,0.5,1.1,0.8,2.1,1.2c1,0.3,3.8,0.6,8.4,0.9v5.9c-5.1-0.3-10.4-0.4-15.8-0.4
			C165.3,172.1,159.8,172.2,155.6,172.5z"/>
		<path class="st1" d="M316.6,172.5v-5.6c5.5-0.2,8.8-0.6,9.8-1.1s1.7-1.5,2.1-2.8c0.5-2,0.8-7.9,0.8-17.8v-41.3
			c0-11.3-0.1-17.5-0.2-18.9h-9.9c-5,0-9.3,0.2-13.1,0.5c-1.5,0.1-2.4,0.3-2.6,0.6c-0.3,0.3-0.6,1.1-0.8,2.4
			c-0.6,3.2-0.9,6.8-1,10.8h-5.7c-0.2-9.4-0.3-14.7-0.3-15.9c-0.1-2-0.4-4.2-0.7-6.5l0.6-0.7c2.2,0.2,4.5,0.4,6.9,0.5
			c3.9,0.1,11.6,0.2,22.8,0.2H353c11.6,0,19.3-0.1,23.2-0.2c2.1-0.1,4.2-0.3,6.4-0.5l0.7,0.7c-0.4,2.8-0.7,5.3-0.8,7.4
			c0,0.4-0.1,5.4-0.3,15.1h-5.7c-0.1-3.6-0.4-7-0.9-10.3c-0.3-1.7-0.6-2.6-0.9-3c-0.3-0.2-1-0.4-2.2-0.5c-3.8-0.4-8.3-0.6-13.6-0.6
			h-9.9c-0.1,1.6-0.2,7.9-0.2,18.9v41.3c0,9.9,0.3,15.9,0.8,17.9c0.3,1.2,1,2.1,2.1,2.7s4.3,1,9.9,1.1v5.6
			c-8.9-0.4-16.4-0.6-22.5-0.6C332.6,171.9,325.1,172.1,316.6,172.5z"/>
		<path class="st1" d="M484.2,160l-3.2,7c-5.7,3-10.9,5.1-15.5,6.2s-10.3,1.7-17.1,1.7c-9.7,0-18.3-1.5-25.8-4.6
			c-5.9-2.5-10.9-5.8-15-9.9c-4.1-4.1-7.2-8.5-9.4-13.3c-3.4-7.2-5-15-5-23.5c0-14.5,4.9-26.3,14.8-35.4
			c9.9-9.2,23.9-13.7,41.9-13.7c6.2,0,11.8,0.5,16.7,1.4c4.9,0.9,10.7,2.5,17.2,4.9l0.3,0.9c-0.7,2.2-1.3,4.9-1.7,8.1
			c-0.7,5.2-1.1,10-1.3,14.4h-5.4c-0.1-5.1-0.3-9.1-0.7-12.1c-3.1-3.2-6.5-5.6-10.4-7.2c-3.8-1.6-8.7-2.4-14.7-2.4
			c-10.8,0-19.4,3.4-25.9,10.2s-9.7,16.3-9.7,28.6c0,7.4,1.1,13.8,3.3,19.4c2.2,5.5,5.1,10.1,8.7,13.7c3.6,3.6,7.3,6.2,11,7.9
			c5,2.2,11.1,3.3,18.2,3.3c4.7,0,9.1-0.5,13.3-1.6c4.2-1.1,8.7-2.9,13.6-5.4L484.2,160z"/>
	</g>
</g>
<g>
	<g>
		<path class="st1" d="M65.6,199.4c0-9.1,7.4-15.9,16.5-15.9s16.5,6.8,16.5,15.9c0,9.1-7.4,16.5-16.5,16.5S65.6,208.5,65.6,199.4z"
			/>
		<g>
			<path class="st1" d="M88.2,174.7c0,0-1,0.4-0.9,1s2.1,5.3,2.6,5.8s3,0.8,3,1.7s-5.4-1.7-7.6-1.9c-6.9-0.7-11.5,1.5-12.6,1.5
				c-1.2,0-1.2-1.2,0.4-1.5c1.5-0.4,2.1-1.2,2.1-1.2s-1.1-0.6-1-1.4c0.1-0.9,2.4,0,2.8-1.2c0.3-1.1,0.8-1.3,0.3-3.3
				c-0.4-2.1-2.1-5.3-3.5-6.1s-5.5-3.3-5.5-4.2s0-2.6,0-2.6s-3.5-1.5-4.5-3s-0.6-3.2-0.6-4.1c0-0.9,1.1-32.2,0.6-32.6
				c-0.4-0.4-1.5-0.1-1.8,0.8s-0.6,1-1.5,1c-0.9,0.1-1.3-1.4-1.3-3c0-1.5,1.2-22.9,1.1-23.3c0-0.3-1.8-1.3-1.9-2
				c-0.1-0.7,2.8-10.3,3.2-14.7C62,76,62.4,69,62.4,69S61,66.8,61,65.6c0-1.2,0.2-3.5,0.2-3.5s-1.3-1.3-4.4-2.2
				c-3.2-0.9-9.3-3.7-10.1-4.3c-0.8-0.6-2.3-1.8-3.2-4.6s-0.3-6.7,0.1-9.1c0.3-2.4,1.1-8.5,1-9.4c-0.1-1-0.2-2.4-0.2-3.6
				s0.4-1.8,0.4-1.8s1.1-3.2,2.9-3.9c1.8-0.7,2.6,0.9,2.6,0.9s1.2,0,1.4,0.4s0.6-0.1,1.1,0.1c0.5,0.3,0.6,1,0.6,1s1.2-0.4,1.4,0.1
				s0.9,1,0.9,1.9c0,0.8,0,1.4-0.5,1.7c-0.4,0.3-1,2.3-4.8,4.4c0.1,2.5-0.7,3.9,0.4,7.4c1.1,3.5,0.6,5.5,1.2,6.5
				c0.6,1,7.7,2.4,8.8,2.3c1.1-0.2,1.5-0.6,2.9-0.7c1.4-0.1,5.1,0.2,5.2,0.5s2.8,0.9,3.9,0.6c1.2-0.3,2.1-1.2,1.8-1.7
				c-0.3-0.5-3.2-2.2-3.6-4.3s-0.7-6-0.7-6s-0.6-1-0.6-1.4s0.7-1.7,0.7-2s0.9-4.6,2-5.9c1-1.3,2.7-2.8,5.9-2.8
				c3.3,0,6.2,2.7,6.8,3.9c0.6,1.1,1.4,1.3,2.7,5.3c1.3,4.1,1.2,8.5,0.2,10s-2.4,2.4-2.4,2.4s-0.1,2,1.6,2.9s4.2,1.7,6.6,1.8
				s3.1,0.8,3.1,0.8l0.1,0.2c0,0,0.9,0.3,2.2,1.8c1.4,1.4,4.7,13.5,5.8,16.5c1.1,3,2.5,6.7,3.1,7.6c0.6,1,3.2,5.5,4.3,9.2
				c1.1,3.7,1.3,8.2,1.6,10.5c0.3,2.3,1,2.6,2.6,2.8c1.6,0.2,3,0.2,3.5,1.6c0.4,1.4,0.5,4.5-1.1,4.6s-2.4,0-2.4,0s-0.8,1.3-2.3,1.4
				c-1.4,0.1-1.8-0.9-2.6-2.3c-0.8-1.5-1.3-2.7-1.6-3.3c-0.3-0.6-0.8-0.8-1.3-1.8s-0.4-2.3-1.5-4c-1-1.6-3-4.6-4.5-8.1
				s-2.9-8.4-2.9-8.4s-0.2-1.2-0.6-1.2s0.2,7.2,0.5,9.8c0.3,2.6,1.9,9.7,1.6,12.7s-2.6,4.2-2.6,4.2s0.1,17.2,0.1,18.3
				c0,1.1-2-0.1-2-0.1s-0.1,9.5-0.2,11.1c-0.1,1.7-1.1,6.8-1.1,7.9c0,1.1-1.4,8.1-1.7,9.2c-0.3,1.2-1.1,2.8-1.1,2.8s0.1,2.5-0.4,3.9
				s-1.7,2.8-1.7,2.8s0.7,10.7,0.6,11s-3.4,0-3.4,0"/>
			<path class="st1" d="M20.4,19c2.4-1.2,8.9,1.6,8.9,1.6l45,19.2l-0.1-1.6L31.1,16.6c0,0-6.2-3.3-6.6-6.4C24,7,18.3,20.1,20.4,19z"
				/>
			<path class="st1" d="M22.4,7.5c2.5,1.4,3.1,5.1,1.4,8.2c-1.7,3.2-5.2,4.7-7.7,3.3s-3.1-5.1-1.4-8.2C16.4,7.6,19.9,6.1,22.4,7.5z"
				/>
		</g>
	</g>
</g>
</svg>
