<svg id="Layer_1" data-name="Layer 1" xmlns="http://www.w3.org/2000/svg" viewBox="0 0 10.65 10.65"><defs><style>.cls-1{fill:#a7a6a6;}</style></defs><title>pencil</title><path class="cls-1" d="M154.45,146.33l1.21,1.21a1.11,1.11,0,0,1,0,1.58l-6.52,6.52a0.63,0.63,0,0,1-.22.14l-2.44.82a1.05,1.05,0,0,1-.34.06,0.76,0.76,0,0,1-.54-0.2,0.79,0.79,0,0,1-.26-0.5,1.06,1.06,0,0,1,0-.44l0.82-2.44a0.62,0.62,0,0,1,.14-0.22l6.52-6.52a1.11,1.11,0,0,1,.58-0.31,1,1,0,0,1,.63.06A1,1,0,0,1,154.45,146.33Zm-1.55,3.84-1.09-1.09-4.36,4.36-0.54,1.64,1.63-.55Zm1.84-1.84-1.09-1.09-1.07,1.07,1.09,1.09Z" transform="translate(-145.34 -145.99)"/></svg>