<?xml version="1.0" encoding="utf-8"?>
<!-- Generator: Adobe Illustrator 19.2.1, SVG Export Plug-In . SVG Version: 6.00 Build 0)  -->
<svg version="1.1" id="Layer_1" xmlns="http://www.w3.org/2000/svg" xmlns:xlink="http://www.w3.org/1999/xlink" x="0px" y="0px"
	 viewBox="0 0 30 30" style="enable-background:new 0 0 30 30;" xml:space="preserve">
<style type="text/css">
	.st0{fill:#A7A6A6;}
</style>
<symbol  id="Air_Transport" viewBox="22.39841 -12.01432 21.29778 21.3317">
	<g>
		<path class="st0" d="M40.39675,7.11737c1.78703,0,1.00135-2.03284,0.26338-2.78729
			c-0.78556-0.80309-1.58924-1.58924-2.38362-2.38361c-0.43464-0.43464-0.96311-0.75051-1.02395-1.32588
			c-0.10397-0.98317,0.24496-2.20536,0.35393-3.18633c0.18645-1.67858,0.3729-3.35716,0.55936-5.03574
			c0.02855-0.25704,0.18843-0.77888,0.11537-1.03861c-0.08538-0.30353-0.65617-0.9224-0.93511-1.04394
			c-0.55295-0.24094-0.67607,0.49067-0.92053,0.97369c-0.98639,1.94892-1.97277,3.89783-2.95915,5.84675
			c-0.56137-0.56137-1.12273-1.12274-1.6841-1.68411c-0.39966-0.39966-0.79932-0.79932-1.19898-1.19898
			c-0.1844-0.1844-0.63233-0.49029-0.73754-0.73754c-0.27328-0.64226,0.28475-1.75425,0.21499-2.46224
			c-0.02488-0.25247-0.05067-0.65464-0.40249-0.73402c-0.32536-0.07341-0.35098,0.19065-0.48914,0.46274
			c-0.38657,0.76131-0.71646,1.99527-1.30058,2.61432c-0.47986,0.50856-1.54219,0.80629-2.17388,1.12054
			c-0.47607,0.23684-1.63245,0.79478-0.48281,0.91447c0.78822,0.08206,1.74857-0.32859,2.50921-0.12799
			c0.64582,0.17032,1.29251,1.14301,1.77158,1.63052c0.67653,0.68845,1.35305,1.37691,2.02958,2.06536
			c-1.65443,0.84818-3.30887,1.69635-4.9633,2.54453c-0.41999,0.21532-1.60343,0.55912-1.8739,0.96069
			c-0.28482,0.42289,0.71071,1.28291,1.1275,1.3752c0.34558,0.07652,0.90919-0.10091,1.2584-0.13967
			c0.53817-0.05973,1.07637-0.11925,1.61452-0.17919c0.4982-0.05549,0.99651-0.1121,1.49479-0.16852
			c1.15255-0.1305,2.3051-0.261,3.45765-0.39151c0.43279-0.049,1.27621-0.31143,1.67587-0.14586
			c0.30875,0.1279,0.66883,0.66884,0.90155,0.90156c0.45325,0.45326,0.9065,0.90651,1.35975,1.35977
			C38.33468,5.87606,39.21143,7.11737,40.39675,7.11737 M40.39672,9.31738c-2.39504,0-4.01804-2.28604-5.55994-3.82794
			c-0.46296-0.46296-0.59062-0.34318-1.26632-0.26666c-1.0749,0.12172-2.1498,0.24344-3.2247,0.36517
			c-1.42625,0.16151-2.85912,0.38347-4.29024,0.47898c-2.10079,0.14019-4.63922-2.67652-3.26929-4.69399
			c0.55087-0.81127,1.68734-1.19624,2.53057-1.62459c0.83531-0.42432,1.67061-0.84865,2.50592-1.27297
			c-0.47654-0.47655-0.62544-0.75355-1.29236-0.78128c-0.8107-0.0337-1.19359-0.18835-1.93613-0.28385
			c-1.15494-0.14854-2.15661-1.19757-2.13107-2.38921c0.02334-1.08918,0.75556-1.73876,1.65084-2.18799
			c0.59729-0.2997,1.53722-0.55084,2.02578-1.00189c0.36416-0.3362,0.56935-1.04886,0.79277-1.4973
			c0.3595-0.72156,0.65947-1.50291,1.38917-1.93549c0.99293-0.58863,2.13022-0.33327,2.95062,0.42378
			c0.9267,0.85515,1.04581,1.76581,0.92814,2.9457c-0.09516,0.9542-0.00709,0.98421,0.67433,1.66564
			c0.39422-0.77891,0.78844-1.55783,1.18266-2.33674c0.40709-0.80434,0.77866-1.90848,1.47253-2.52029
			c1.20139-1.05932,2.62601-0.56186,3.63966,0.4518c0.89023,0.89024,1.38792,1.6618,1.25356,2.97571
			c-0.17895,1.74997-0.38853,3.49771-0.58273,5.24608c-0.06277,0.56508-0.12553,1.13016-0.1883,1.69525
			c-0.03063,0.27579-0.20415,0.82537-0.12228,1.10083c0.16254,0.54682,1.22604,1.26851,1.63277,1.67525
			c0.90965,0.90965,1.94867,1.75471,2.35079,3.0257C44.2157,6.96665,42.83387,9.31738,40.39672,9.31738z"/>
	</g>
</symbol>
<use xlink:href="#Air_Transport"  width="21.29778" height="21.3317" id="XMLID_3_" x="22.39841" y="-12.01432" transform="matrix(0.76526 0 0 -0.76526 -10.68403 15.11204)" style="overflow:visible;"/>
</svg>
