<svg id="Layer_1" data-name="Layer 1" xmlns="http://www.w3.org/2000/svg" viewBox="0 0 19.0762 19.0762">
  <defs>
    <style>
      .cls-1 {
        fill: #51bd95;
      }
    </style>
  </defs>
  <title>Temp Mission</title>
  <g>
    <path class="cls-1" d="M50.5043,41.4174a9.5044,9.5044,0,0,1,7.415,0,9.3876,9.3876,0,0,1,5.0776,5.0776,9.5045,9.5045,0,0,1,0,7.415,9.3876,9.3876,0,0,1-5.0776,5.0776,9.5044,9.5044,0,0,1-7.415,0A9.3882,9.3882,0,0,1,45.4269,53.91a9.5009,9.5009,0,0,1,0-7.415A9.3882,9.3882,0,0,1,50.5043,41.4174Zm0.57,16.2209a8.0331,8.0331,0,0,0,6.2752,0A7.92,7.92,0,0,0,61.6479,53.34a8.0331,8.0331,0,0,0,0-6.2749A7.9206,7.9206,0,0,0,57.35,42.7667a8.0338,8.0338,0,0,0-6.2752,0,7.92,7.92,0,0,0-4.2983,4.2984,8.0331,8.0331,0,0,0,0,6.2749A7.92,7.92,0,0,0,51.0743,57.6383Z" transform="translate(-44.6737 -40.6645)"/>
    <path class="cls-1" d="M51.9719,55.5077V54.7608l1.3982-.0945c0.19-.0142.217-0.0681,0.217-0.2713V46.6428h-2.104c-0.1494,0-.19.0142-0.2174,0.1494l-0.217,1.1817H50.1392V45.6794h8.145v2.2945H57.3748l-0.2174-1.1817c-0.0269-.1352-0.0676-0.1494-0.217-0.1494H54.8359V54.395c0,0.19.0137,0.2439,0.2174,0.2571l1.4932,0.1087v0.7469H51.9719Z" transform="translate(-44.6737 -40.6645)"/>
  </g>
</svg>
