<?xml version="1.0" encoding="utf-8"?>
<!-- Generator: Adobe Illustrator 19.2.1, SVG Export Plug-In . SVG Version: 6.00 Build 0)  -->
<svg version="1.1" id="Layer_1" xmlns="http://www.w3.org/2000/svg" xmlns:xlink="http://www.w3.org/1999/xlink" x="0px" y="0px"
	 viewBox="0 0 30 30" style="enable-background:new 0 0 30 30;" xml:space="preserve">
<style type="text/css">
	.st0{fill:#A7A6A6;}
</style>
<path class="st0" d="M22.50488,13.33984h-0.604v-1.47559c0-0.96484-0.78516-1.75-1.75-1.75h-2.19727
	c-0.96484,0-1.75,0.78516-1.75,1.75v1.47559h-2.0918v-2.75195c0-0.96484-0.78516-1.75-1.75-1.75H7.47754
	c-0.96484,0-1.75,0.78516-1.75,1.75v7.65527c0,0.96484,0.78516,1.75,1.75,1.75h0.31952
	c0.23425,1.04846,1.16888,1.83594,2.28741,1.83594c1.1181,0,2.05267-0.78748,2.28693-1.83594h4.43298
	c0.23425,1.04846,1.16882,1.83594,2.28693,1.83594c1.11853,0,2.05316-0.78748,2.28741-1.83594h1.12616
	c0.96484,0,1.75-0.78516,1.75-1.75v-3.15332C24.25488,14.125,23.46973,13.33984,22.50488,13.33984z M17.70361,11.86426
	c0-0.1377,0.1123-0.25,0.25-0.25h2.19727c0.1377,0,0.25,0.1123,0.25,0.25l-0.00269,1.47559h-2.67255L17.70361,11.86426z
	 M7.47754,10.33789h4.88428c0.13574,0,0.25,0.11426,0.25,0.25v2.75195H7.22754v-2.75195
	C7.22754,10.45215,7.3418,10.33789,7.47754,10.33789z M11.03784,19.99316c-0.18549,0.34344-0.53656,0.58594-0.95337,0.58594
	c-0.41711,0-0.76831-0.24249-0.95386-0.58594C9.04706,19.8385,8.9873,19.6701,8.9873,19.48242
	c0-0.43988,0.26398-0.81451,0.63861-0.98926c0.14056-0.06561,0.29346-0.10791,0.45856-0.10791
	c0.16498,0,0.31781,0.0423,0.45831,0.10791c0.37439,0.17474,0.63837,0.54938,0.63837,0.98926
	C11.18115,19.6701,11.1214,19.8385,11.03784,19.99316z M20.04517,19.99316c-0.18555,0.34344-0.53674,0.58594-0.95386,0.58594
	c-0.41681,0-0.76788-0.24249-0.95337-0.58594c-0.08356-0.15466-0.14331-0.32306-0.14331-0.51074
	c0-0.43988,0.26398-0.81451,0.63837-0.98926c0.1405-0.06561,0.29333-0.10791,0.45831-0.10791
	c0.1651,0,0.31799,0.0423,0.45856,0.10791c0.37463,0.17474,0.63861,0.54938,0.63861,0.98926
	C20.18848,19.6701,20.12872,19.8385,20.04517,19.99316z M22.75488,18.24316c0,0.13574-0.11426,0.25-0.25,0.25h-1.2926
	c-0.37457-0.7995-1.18115-1.35791-2.12097-1.35791c-0.93945,0-1.74591,0.55841-2.12048,1.35791h-4.76587
	c-0.37457-0.7995-1.18103-1.35791-2.12048-1.35791c-0.93982,0-1.7464,0.55841-2.12097,1.35791H7.47754
	c-0.13574,0-0.25-0.11426-0.25-0.25v-3.40332h5.38428h5.13623h2.64746h0.75h1.35938c0.13574,0,0.25,0.11426,0.25,0.25V18.24316z"/>
</svg>
