<svg id="Layer_1" data-name="Layer 1" xmlns="http://www.w3.org/2000/svg" xmlns:xlink="http://www.w3.org/1999/xlink" viewBox="0 0 19.08 19.08"><defs><style>.cls-1{fill:#ed2224;}</style><symbol id="travel_red" data-name="travel_red" viewBox="0 0 19.08 19.08"><path class="cls-1" d="M12.93,6.38A1.69,1.69,0,0,0,11.62,7a2.18,2.18,0,0,0-.54,1.49A2.17,2.17,0,0,0,11.62,10a1.69,1.69,0,0,0,1.32.61A1.71,1.71,0,0,0,14.26,10a2.15,2.15,0,0,0,.55-1.48A2.16,2.16,0,0,0,14.26,7a1.71,1.71,0,0,0-1.33-.62h0Z"/><path class="cls-1" d="M15.29,11.6A1,1,0,0,0,14.43,11H12.49a1.89,1.89,0,0,1,.36.84c0.14,0.85.21,4.16,0.24,5.28a2.06,2.06,0,0,0,.74-0.18c0.66-.66,1.55-0.65,1.93-1.55A18.38,18.38,0,0,0,15.29,11.6Z"/><path class="cls-1" d="M5.83,0.75a9.5,9.5,0,0,1,7.41,0,9.39,9.39,0,0,1,5.08,5.08,9.5,9.5,0,0,1,0,7.42,9.39,9.39,0,0,1-5.08,5.08,9.5,9.5,0,0,1-7.41,0A9.39,9.39,0,0,1,.75,13.25a9.5,9.5,0,0,1,0-7.42A9.39,9.39,0,0,1,5.83.75ZM6.4,17a8,8,0,0,0,6.28,0,7.92,7.92,0,0,0,4.3-4.3A8,8,0,0,0,17,6.4a7.92,7.92,0,0,0-4.3-4.3,8,8,0,0,0-6.28,0A7.92,7.92,0,0,0,2.1,6.4a8,8,0,0,0,0,6.27A7.92,7.92,0,0,0,6.4,17Z"/><path class="cls-1" d="M7.44,3.66a2.31,2.31,0,0,0-1.77.8A2.77,2.77,0,0,0,4.95,6.4a2.77,2.77,0,0,0,.73,1.94,2.36,2.36,0,0,0,3.54,0A2.77,2.77,0,0,0,9.95,6.4a2.77,2.77,0,0,0-.73-1.94,2.32,2.32,0,0,0-1.77-.8h0Z"/><path class="cls-1" d="M6.78,9H6.4a3.57,3.57,0,0,0-1.66.83,3.09,3.09,0,0,0-1.15,1.73c-0.16,1-.31,4.32-0.35,4.84a7.85,7.85,0,0,0,1.37.8,7.21,7.21,0,0,0,2.85.6c1,0,1.94.4,2.85,0a7,7,0,0,0,1.33-.36c0-.44-0.09-4.64-0.25-5.62a3.46,3.46,0,0,0-.4-0.89l-0.3-.69A3.49,3.49,0,0,0,8.48,9H7.78"/></symbol></defs><title>travel leader</title><use id="travel_red-3" data-name="travel_red" width="19.08" height="19.08" xlink:href="#travel_red"/></svg>