<?xml version="1.0" encoding="utf-8"?>
<!-- Generator: Adobe Illustrator 19.1.0, SVG Export Plug-In . SVG Version: 6.00 Build 0)  -->
<svg version="1.1" id="Layer_1" xmlns="http://www.w3.org/2000/svg" xmlns:xlink="http://www.w3.org/1999/xlink" x="0px" y="0px"
	 viewBox="0 0 500 500" style="enable-background:new 0 0 500 500;" xml:space="preserve">
<style type="text/css">
	.st0{fill:#A7B3CA;}
</style>
<path class="st0" d="M152.8,19.2C183.6,6,216-0.5,250-0.5c34,0,66.4,6.6,97.2,19.7C378,32.3,404.6,50.1,427,72.5
	c22.4,22.4,40.2,49,53.3,79.8c13.2,30.8,19.7,63.2,19.7,97.2c0,36.4-7.4,70.6-22.1,102.8c-14.7,32.2-35.1,59.9-61.3,83.3
	c-17.2,15.3-36.5,28.3-58.1,38.9c-34.4,16.6-70.5,24.9-108.6,24.9c-37.8,0-73.9-8.3-108.3-24.9c-21-9.9-40.5-22.8-58.4-38.9
	c-26.1-23.4-46.6-51.2-61.3-83.3C7.4,320.1,0,285.8,0,249.5c0-34,6.6-66.4,19.7-97.2c13.2-30.8,30.9-57.4,53.3-79.8
	C95.4,50.1,122,32.3,152.8,19.2z M416.9,378.8c29.8-38,44.7-81.1,44.7-129.4c0-28.7-5.6-56.1-16.7-82.2
	c-11.1-26.1-26.2-48.7-45.1-67.6c-18.9-18.9-41.4-33.9-67.6-45.1c-26.1-11.1-53.5-16.7-82.2-16.7c-28.7,0-56.1,5.6-82.2,16.7
	c-26.1,11.1-48.7,26.2-67.6,45.1c-18.9,18.9-34,41.4-45.1,67.6c-11.1,26.1-16.7,53.5-16.7,82.2c0,48.2,14.9,91.4,44.7,129.4
	c1.1-26.9,10.5-50.4,28.2-70.7c17.7-20.3,39.7-32.8,66.1-37.5c-15.7-20.1-23.6-43.1-23.6-69.1c0-29.2,9.4-54.2,28.1-74.8
	c18.7-20.6,41.4-31,68.1-31c26.7,0,49.4,10.3,68.1,31c18.7,20.7,28.1,45.6,28.1,74.8c0,26-7.9,49-23.6,69.1
	c26.3,4.8,48.3,17.3,66.1,37.5C406.4,328.4,415.8,352,416.9,378.8z M378.8,416.9V384c0-21.2-7.5-39.3-22.6-54.4
	C341.1,314.6,323,307,301.8,307H198.2c-21.4,0-39.6,7.5-54.6,22.6c-15,15.1-22.5,33.2-22.5,54.4v32.9
	c38.2,29.4,81.1,44.1,128.8,44.1C297.7,461.1,340.6,446.4,378.8,416.9z M209.4,249c11.3,13.1,24.9,19.6,40.6,19.6
	c15.7,0,29.2-6.5,40.6-19.6c11.3-13.1,17-28.9,17-47.6c0-18.8-5.7-34.8-17-47.8C279.2,140.6,265.7,134,250,134
	c-15.7,0-29.2,6.5-40.6,19.6c-11.3,13.1-17,29-17,47.8C192.4,220.1,198.1,236,209.4,249z"/>
</svg>
