<?xml version="1.0" standalone="no"?>
<!DOCTYPE svg PUBLIC "-//W3C//DTD SVG 20010904//EN"
 "http://www.w3.org/TR/2001/REC-SVG-20010904/DTD/svg10.dtd">
<svg version="1.0" xmlns="http://www.w3.org/2000/svg"
 width="260.000000pt" height="260.000000pt" viewBox="0 0 260.000000 260.000000"
 preserveAspectRatio="xMidYMid meet">
<metadata>
Created by potrace 1.11, written by Peter Selinger 2001-2013
</metadata>
<g transform="translate(0.000000,260.000000) scale(0.100000,-0.100000)"
fill="#000000" stroke="none">
<path d="M793 1618 c-27 -30 -32 -53 -14 -68 4 -3 35 -39 70 -80 34 -41 70
-84 80 -95 9 -11 33 -40 52 -65 18 -25 42 -51 52 -59 30 -22 33 -21 -253 -117
-74 -25 -144 -50 -155 -55 -11 -5 -51 -19 -89 -32 -64 -21 -94 -42 -64 -45 7
0 60 -9 117 -20 71 -12 142 -18 220 -16 123 2 129 3 176 21 17 6 287 96 600
199 314 102 586 195 606 205 46 23 107 82 120 115 26 70 -103 107 -223 65 -32
-11 -58 -17 -58 -14 0 3 -6 1 -13 -5 -7 -6 -31 -15 -52 -21 -22 -5 -132 -41
-244 -79 l-204 -69 -61 24 c-34 13 -70 28 -81 32 -33 15 -216 88 -265 106 -25
9 -58 23 -75 30 -64 28 -191 75 -201 75 -5 0 -24 -15 -41 -32z"/>
<path d="M316 1249 c-14 -11 -26 -25 -26 -30 0 -10 26 -41 100 -121 l45 -48
93 34 c51 19 96 37 99 40 3 3 -52 33 -123 67 -71 34 -136 65 -145 70 -12 6
-25 2 -43 -12z"/>
</g>
</svg>
